HIERARCHY
ROOT Hips
{
	OFFSET 0.00000 0.00000 0.00000
	CHANNELS 6 Xposition Yposition Zposition Zrotation Yrotation Xrotation 
	JOINT LHipJoint
	{
		OFFSET 0 0 0
		CHANNELS 3 Zrotation Yrotation Xrotation
		JOINT LeftUpLeg
		{
			OFFSET 1.77779 -1.88989 0.48267
			CHANNELS 3 Zrotation Yrotation Xrotation
			JOINT LeftLeg
			{
				OFFSET 2.53442 -6.96327 0.00000
				CHANNELS 3 Zrotation Yrotation Xrotation
				JOINT LeftFoot
				{
					OFFSET 2.71068 -7.44755 0.00000
					CHANNELS 3 Zrotation Yrotation Xrotation
					JOINT LeftToeBase
					{
						OFFSET 0.17992 -0.49431 2.22524
						CHANNELS 3 Zrotation Yrotation Xrotation
						End Site
						{
							OFFSET 0.00000 -0.00000 1.14687
						}
					}
				}
			}
		}
	}
	JOINT RHipJoint
	{
		OFFSET 0 0 0
		CHANNELS 3 Zrotation Yrotation Xrotation
		JOINT RightUpLeg
		{
			OFFSET -1.58469 -1.88989 0.48267
			CHANNELS 3 Zrotation Yrotation Xrotation
			JOINT RightLeg
			{
				OFFSET -2.60386 -7.15404 0.00000
				CHANNELS 3 Zrotation Yrotation Xrotation
				JOINT RightFoot
				{
					OFFSET -2.73334 -7.50979 0.00000
					CHANNELS 3 Zrotation Yrotation Xrotation
					JOINT RightToeBase
					{
						OFFSET -0.25618 -0.70384 2.21822
						CHANNELS 3 Zrotation Yrotation Xrotation
						End Site
						{
							OFFSET -0.00000 -0.00000 1.16381
						}
					}
				}
			}
		}
	}
	JOINT LowerBack
	{
		OFFSET 0 0 0
		CHANNELS 3 Zrotation Yrotation Xrotation
		JOINT Spine
		{
			OFFSET 0.03410 2.01612 -0.22230
			CHANNELS 3 Zrotation Yrotation Xrotation
			JOINT Spine1
			{
				OFFSET 0.03465 2.03012 0.00937
				CHANNELS 3 Zrotation Yrotation Xrotation
				JOINT Neck
				{
					OFFSET 0 0 0
					CHANNELS 3 Zrotation Yrotation Xrotation
					JOINT Neck1
					{
						OFFSET -0.00219 1.70459 0.20857
						CHANNELS 3 Zrotation Yrotation Xrotation
						JOINT Head
						{
							OFFSET 0.02518 1.72339 -0.22179
							CHANNELS 3 Zrotation Yrotation Xrotation
							End Site
							{
								OFFSET 0.00282 1.74122 -0.09823
							}
						}
					}
				}
				JOINT LeftShoulder
				{
					OFFSET 0 0 0
					CHANNELS 3 Zrotation Yrotation Xrotation
					JOINT LeftArm
					{
						OFFSET 3.36358 1.00547 -0.37661
						CHANNELS 3 Zrotation Yrotation Xrotation
						JOINT LeftForeArm
						{
							OFFSET 5.06507 -0.00000 0.00000
							CHANNELS 3 Zrotation Yrotation Xrotation
							JOINT LeftHand
							{
								OFFSET 3.60196 -0.00000 0.00000
								CHANNELS 3 Zrotation Yrotation Xrotation
								JOINT LeftFingerBase
								{
									OFFSET 0 0 0
									CHANNELS 3 Zrotation Yrotation Xrotation
									JOINT LeftHandIndex1
									{
										OFFSET 0.45035 -0.00000 0.00000
										CHANNELS 3 Zrotation Yrotation Xrotation
										End Site
										{
											OFFSET 0.36308 -0.00000 0.00000
										}
									}
								}
								JOINT LThumb
								{
									OFFSET 0 0 0
									CHANNELS 3 Zrotation Yrotation Xrotation
									End Site
									{
										OFFSET 0.36862 -0.00000 0.36862
									}
								}
							}
						}
					}
				}
				JOINT RightShoulder
				{
					OFFSET 0 0 0
					CHANNELS 3 Zrotation Yrotation Xrotation
					JOINT RightArm
					{
						OFFSET -3.50159 0.80383 -0.71526
						CHANNELS 3 Zrotation Yrotation Xrotation
						JOINT RightForeArm
						{
							OFFSET -5.36394 -0.00000 0.00000
							CHANNELS 3 Zrotation Yrotation Xrotation
							JOINT RightHand
							{
								OFFSET -3.58035 -0.00000 0.00000
								CHANNELS 3 Zrotation Yrotation Xrotation
								JOINT RightFingerBase
								{
									OFFSET 0 0 0
									CHANNELS 3 Zrotation Yrotation Xrotation
									JOINT RightHandIndex1
									{
										OFFSET -0.66375 -0.00000 0.00000
										CHANNELS 3 Zrotation Yrotation Xrotation
										End Site
										{
											OFFSET -0.53513 -0.00000 0.00000
										}
									}
								}
								JOINT RThumb
								{
									OFFSET 0 0 0
									CHANNELS 3 Zrotation Yrotation Xrotation
									End Site
									{
										OFFSET -0.54330 -0.00000 0.54330
									}
								}
							}
						}
					}
				}
			}
		}
	}
}
MOTION
Frames: 9
Frame Time: 0.0166666
4.9459 17.8496 -10.1326 1.9726 -1.5939 -2.2766 0.0000 0.0000 0.0000 -28.0640 -1.0599 -0.6216 1.8859 8.6242 24.6265 0.9765 -3.9084 -17.7746 0.0000 0.0167 0.0458 0.0000 0.0000 0.0000 16.8582 8.8933 -31.8684 -7.7214 -15.9105 51.5530 -0.3100 -1.0047 -10.9308 -0.0000 -0.0255 0.0702 -2.9361 -0.5628 11.4334 1.3031 -1.0517 0.3885 3.2006 -0.4168 -5.9344 -2.3499 -3.0136 -16.7332 -0.3989 -3.4768 21.4566 -0.2028 -1.8580 9.5862 0.0000 -0.0000 0.0000 -81.9340 0.9769 29.7558 16.7824 -26.5700 -3.9895 -0.0000 0.0000 -5.6819 29.3990 17.6048 9.6711 -7.1250 0.0000 -0.0000 1.4158 49.9868 0.1741 0.0000 -0.0000 0.0000 89.1053 -0.4350 5.1444 -13.6045 22.1665 -2.6771 0.0000 0.0000 4.0935 -21.2625 21.0294 -7.9493 7.1250 -0.0000 -0.0000 4.6661 -7.6234 4.0196
4.9285 17.8522 -9.7960 1.9993 -1.4257 -1.9386 0.0000 0.0000 0.0000 -28.0348 -0.4421 0.7838 1.6612 8.1215 23.0837 0.9665 -4.1845 -17.6487 0.0180 0.8673 2.3838 0.0000 0.0000 0.0000 16.7950 9.2144 -32.1973 -6.2434 -14.6602 45.9511 -0.2283 -2.1245 -10.0645 -0.0145 -0.7787 2.1401 -3.1269 -0.6570 11.1867 1.3863 -1.1891 0.4900 3.4106 -0.4852 -5.6727 -2.0427 -2.8258 -17.1689 -0.6064 -3.2363 21.5446 -0.3015 -1.7441 9.6858 -0.0000 0.0000 0.0000 -81.3636 0.1610 30.5157 17.2429 -27.1769 -4.1977 -0.0000 0.0000 -6.2667 29.4284 22.4856 12.1750 -7.1250 0.0000 -0.0000 0.5225 55.3979 0.1334 -0.0000 0.0000 0.0000 89.2279 -0.5877 5.9864 -14.0237 22.7686 -2.8373 0.0000 0.0000 3.2914 -20.9996 20.5760 -7.6832 7.1250 -0.0000 -0.0000 4.7968 -8.1374 4.0843
4.9139 17.8457 -9.4465 2.2367 -1.3756 -1.5978 0.0000 0.0000 0.0000 -28.3317 0.1940 2.4527 1.4341 7.5716 21.4203 0.9709 -3.9325 -17.7186 0.0006 0.1530 0.4204 0.0000 0.0000 0.0000 16.4339 9.8155 -32.1653 -4.8010 -13.1561 39.9557 -0.1371 -3.5320 -9.2086 -0.0005 -0.1414 0.3884 -3.3893 -0.6962 10.9194 1.3676 -1.2670 0.5209 3.5440 -0.5221 -5.4789 -2.3212 -3.0319 -16.7401 -0.2988 -3.5306 20.9358 -0.1747 -1.8679 9.4064 0.0000 -0.0000 0.0000 -80.8449 -0.4080 31.1717 17.6685 -27.7306 -4.3939 -0.0000 0.0000 -7.0747 28.1771 26.4822 13.4345 -7.1250 0.0000 -0.0000 -2.0997 59.4414 -0.7407 0.0000 -0.0000 0.0000 89.3028 -0.3776 5.4236 -13.6660 22.2552 -2.7003 0.0000 0.0000 3.6570 -22.1120 17.9484 -7.1366 7.1250 -0.0000 -0.0000 3.8767 -10.7427 3.0935
4.8921 17.8196 -9.1022 2.6446 -1.0430 -1.3297 0.0000 0.0000 0.0000 -28.6716 1.1106 4.0357 1.2298 7.0330 19.8132 0.9416 -3.8777 -17.4466 0.0042 0.4164 1.1442 0.0000 0.0000 0.0000 15.7507 10.5347 -31.7332 -3.4874 -11.4451 33.7962 -0.0562 -5.1818 -8.9713 -0.0201 0.9151 -2.5152 -3.8580 -0.7149 11.3805 1.2600 -1.3759 0.3103 3.7296 -0.5493 -5.9432 -2.0703 -3.0508 -17.4989 -0.3183 -3.6049 21.5388 -0.2517 -1.8823 9.7538 -0.0000 0.0000 0.0000 -80.3059 -0.6234 31.8633 18.2245 -28.4437 -4.6557 -0.0000 0.0000 -7.6055 29.6663 21.9215 12.0055 -7.1250 0.0000 -0.0000 0.9105 54.8283 0.2198 -0.0000 0.0000 0.0000 89.5231 -0.8974 5.2029 -13.7599 22.3904 -2.7360 0.0000 0.0000 3.7159 -21.7276 18.4947 -7.2047 7.1250 -0.0000 -0.0000 4.1681 -10.2186 3.3717
4.8686 17.8145 -8.7399 2.9195 -0.7480 -0.7173 0.0000 0.0000 0.0000 -28.8289 1.7291 5.3414 1.0479 6.5096 18.2704 0.9224 -4.2363 -17.2219 0.0024 0.3146 0.8645 0.0000 0.0000 0.0000 14.6669 12.3955 -30.8563 -2.3903 -9.6357 27.8047 -0.0238 -6.9771 -10.4958 -0.0218 0.9535 -2.6209 -4.1138 -0.8558 10.5172 1.1646 -1.5671 0.3298 3.7770 -0.6525 -5.4163 -1.9260 -3.1238 -17.3110 -0.3834 -3.7340 21.2308 -0.3086 -1.9385 9.6065 -0.0000 -0.0000 0.0000 -79.8108 -1.3824 32.2217 18.3831 -28.6450 -4.7315 -0.0000 0.0000 -7.9841 29.8422 20.3661 11.2907 -7.1250 0.0000 -0.0000 1.4149 53.1439 0.2835 -0.0000 -0.0000 0.0000 89.8088 -0.9018 5.5566 -13.9973 22.7309 -2.8271 0.0000 0.0000 2.9971 -19.8565 19.4131 -6.8447 7.1250 -0.0000 -0.0000 5.4481 -9.5138 4.4936
4.8360 17.7984 -8.3796 2.9671 -0.3898 -0.5223 0.0000 0.0000 0.0000 -28.6283 2.3930 7.0332 0.9043 6.0602 16.9592 0.8908 -4.6324 -16.8813 0.0000 0.0418 0.1148 0.0000 0.0000 0.0000 13.6366 14.6275 -29.3030 -1.5231 -7.7926 22.0860 -0.0611 -8.7171 -13.5113 -0.0064 -0.5172 1.4212 -4.3567 -1.0515 10.3267 1.2726 -1.8418 0.3592 4.0608 -0.7862 -5.2415 -1.9387 -3.0925 -17.1558 -0.4145 -3.6809 20.9068 -0.3038 -1.9189 9.4633 0.0000 0.0000 0.0000 -79.6067 -1.6423 31.9609 18.9210 -29.3204 -4.9921 -0.0000 0.0000 -7.8714 28.6926 20.3113 10.7571 -7.1250 0.0000 -0.0000 0.2207 52.8569 0.0427 0.0000 0.0000 0.0000 89.7984 -1.0289 5.6854 -13.8889 22.5756 -2.7853 0.0000 0.0000 2.9870 -20.4991 20.1129 -7.3259 7.1250 -0.0000 -0.0000 5.0823 -8.6945 4.2729
4.7963 17.7792 -8.0090 2.8569 0.0626 -0.4014 0.0000 0.0000 0.0000 -28.2083 2.7748 8.7768 0.7949 5.6911 15.8908 0.8589 -5.1116 -16.5402 0.0014 -0.2388 -0.6563 0.0000 0.0000 0.0000 12.5533 17.2991 -27.5029 -0.9321 -6.1502 17.2207 -0.0819 -10.8686 -16.6378 -0.0111 -0.6796 1.8676 -4.3773 -1.1054 10.1723 1.3250 -1.9029 0.5737 4.1256 -0.8288 -4.9204 -1.8906 -3.2505 -17.7913 -0.4786 -3.8831 21.0435 -0.3737 -2.0137 9.6275 -0.0000 -0.0000 0.0000 -79.2730 -2.6625 32.3235 18.9218 -29.3214 -4.9925 -0.0000 0.0000 -8.3990 28.7895 21.8536 11.5603 -7.1250 0.0000 -0.0000 -0.0173 54.5695 -0.0041 -0.0000 -0.0000 0.0000 90.0533 -0.4934 3.6052 -13.3389 21.7818 -2.5777 0.0000 0.0000 5.2957 -21.0511 20.0404 -7.5136 7.1250 -0.0000 -0.0000 4.7220 -8.6904 3.9682
4.7583 17.7612 -7.6270 2.9328 0.8889 -0.2039 0.0000 0.0000 0.0000 -27.8939 2.7557 10.3776 0.7278 5.4510 15.1996 0.8162 -5.8630 -16.1039 0.0385 -1.2657 -3.4803 0.0000 0.0000 0.0000 11.4801 19.0896 -26.2413 -0.6421 -5.1265 14.2696 -0.0900 -12.6630 -19.1041 -0.0002 0.0945 -0.2597 -4.5365 -1.3951 10.0932 1.3447 -2.3040 0.4428 4.2908 -1.0192 -4.9659 -1.8924 -3.1213 -17.9999 -0.3498 -3.7321 21.4056 -0.3163 -1.9280 9.7959 -0.0000 -0.0000 0.0000 -79.0634 -2.7131 32.4356 19.0254 -29.4502 -5.0433 -0.0000 0.0000 -8.7399 30.3939 23.6831 13.2574 -7.1250 0.0000 -0.0000 1.2982 56.9285 0.3795 -0.0000 -0.0000 0.0000 90.1494 -1.1730 5.2179 -13.8126 22.4662 -2.7561 0.0000 0.0000 2.8786 -20.1274 19.7851 -7.0717 7.1250 -0.0000 -0.0000 5.2982 -9.0890 4.4142
4.7220 17.7229 -7.2514 3.0345 1.1974 -0.0530 0.0000 0.0000 0.0000 -27.6837 2.8767 11.4147 0.7551 5.5498 15.4836 0.7683 -6.1436 -15.6283 0.1595 -2.5730 -7.0920 0.0000 0.0000 0.0000 11.7254 18.1748 -26.4531 -0.5924 -4.9277 13.7025 -0.0782 -12.0478 -18.1466 -0.0089 0.6091 -1.6738 -4.8905 -1.5702 10.1017 1.5047 -2.5724 0.3002 4.7003 -1.1356 -5.0700 -2.1262 -3.0330 -17.6978 -0.3571 -3.5479 21.3820 -0.2499 -1.8641 9.7353 -0.0000 -0.0000 0.0000 -79.1870 -2.8129 31.9464 19.1449 -29.5983 -5.1022 -0.0000 0.0000 -8.0712 30.6974 27.1755 15.1711 -7.1250 0.0000 -0.0000 0.6236 60.8181 0.2404 -0.0000 -0.0000 0.0000 89.9788 -1.3543 5.0968 -13.5719 22.1194 -2.6648 0.0000 0.0000 3.2417 -19.9229 20.4966 -7.2328 7.1250 -0.0000 -0.0000 5.4798 -8.3773 4.6449
